# xmcd
#
# Track frame offsets:
#	150
#	13262
#	27542
#	40757
#	52620
#	62885
#	76027
#	87945
#	102197
#	114690
#	127357
#	138902
#	149102
#	161075
#	172502
#	187280
#	200927
#	219400
#	233417
#	246697
#
# Disc length: 3457 seconds
#
# Revision: 1
# Processed by: cddbd v1.5.2PL0 Copyright (c) Steve Scherf et al.
# Submitted via: audiograbber 1.83.01
#
DISCID=270d7f14
DTITLE=Judy Garland - Stars Of The Silver Screen [Disc 3] Judy At The Movies
DYEAR=2007
DGENRE=Easy Listening
TTITLE0=The Trolley Song
TTITLE1=But Not For Me
TTITLE2=I'm Nobody's Baby
TTITLE3=When You Wore A Tulip And I Wore A Big Red Rose (with Gene Kelly)
TTITLE4=Figaro
TTITLE5=In The Valley (Where The Evenin' Sun Goes Down)
TTITLE6=It Never Rains But What It Pours
TTITLE7=Bidin' My Time
TTITLE8=Have Yourself A Merry Little Christmas
TTITLE9=Over The Rainbow
TTITLE10=For Me And My Gal (with Gene Kelly)
TTITLE11=Meet Me In St Louis, Louis
TTITLE12=A Couple Of Swells (with Fred Astaire)
TTITLE13=F.D.R. Jones
TTITLE14=On The Atchison, Topeka And The Santa Fe
TTITLE15=I'm Always Chasing Rainbows
TTITLE16=In-Between
TTITLE17=Ten Pins In The Sky
TTITLE18=Everybody Sing
TTITLE19=Get Happy
EXTD=
EXTT0=
EXTT1=
EXTT2=
EXTT3=
EXTT4=
EXTT5=
EXTT6=
EXTT7=
EXTT8=
EXTT9=
EXTT10=
EXTT11=
EXTT12=
EXTT13=
EXTT14=
EXTT15=
EXTT16=
EXTT17=
EXTT18=
EXTT19=
PLAYORDER=
